<svg width="109" height="48" viewBox="0 0 109 48" fill="none" xmlns="http://www.w3.org/2000/svg">
    <path d="M0 31.986a3.582 3.582 0 0 1 3.527-3.541c.884.012 1.668.362 2.38 1.05l-.788 1.074c-.462-.454-1.019-.734-1.604-.734a2.203 2.203 0 0 0-2.134 2.159c0 1.21 1.08 2.145 2.128 2.145.624 0 1.164-.332 1.614-.776l.784 1.102c-.598.594-1.326 1.042-2.355 1.042A3.563 3.563 0 0 1 0 31.986zM16.384 31.99a3.536 3.536 0 0 1 4.216-3.484 3.533 3.533 0 0 1 2.582 4.823 3.535 3.535 0 0 1-3.271 2.18 3.546 3.546 0 0 1-3.527-3.52zm5.684-.008a2.154 2.154 0 1 0-2.157 2.145 2.16 2.16 0 0 0 2.157-2.146zM40.208 28.415v6.964h-1.365v-2.96l-1.95 2.846h-.009l-1.96-2.845v2.959H33.56v-6.964h.075l3.253 4.49 3.25-4.49h.07zM51.456 28.584h2.386c1.313 0 2.388 1.032 2.388 2.297 0 1.264-1.075 2.29-2.388 2.29H52.82v2.204h-1.365v-6.79zm3.409 2.284c0-.514-.459-.931-1.023-.931H52.82v1.88h1.02a.987.987 0 0 0 1.024-.949zM72.166 34.43h-2.719l-.434.949h-1.475l3.245-6.964h.043l3.251 6.964h-1.482l-.43-.95zm-.532-1.163-.826-1.817-.827 1.817h1.653zM90.503 28.568v6.938h-.064l-4.03-3.925v3.806h-1.367v-6.923h.067l4.025 3.916v-3.812h1.369zM104.055 32.59l-2.103-3.88h1.543l1.239 2.36 1.24-2.36h1.545l-2.107 3.88v2.916h-1.357v-2.917zM65.72 5.806v17.812h4.728V5.806H65.72zM22.916 5.782v18.013h-1.502l-9.159-8.873v8.707H7.527V5.628h1.525l9.124 8.84V5.782h4.74zM36.853 10.225h-4.27v13.393H27.85V10.225h-4.27v-4.42h13.278l-.005 4.42zM42.183 10.203v2.487h5.655v3.944h-5.655v2.553h6.871v4.43H37.51V5.807h11.544v4.397h-6.871zM59.835 23.618l-4.766-7.735v7.735h-4.724l-.022-17.812h6.761c3.844 0 6.595 2.597 6.595 5.786a5.375 5.375 0 0 1-3.083 4.873l4.773 7.148-5.534.005zm-4.784-9.99 1.929.011c1.005.011 1.928-.696 1.928-1.79 0-1.096-.929-1.792-1.928-1.792H55.05v3.571zM3.423 5.806A2.363 2.363 0 0 0 1.06 8.17v15.448h4.728V8.17a2.364 2.364 0 0 0-2.364-2.364zM3.428 4.728a2.364 2.364 0 1 0 0-4.727 2.364 2.364 0 0 0 0 4.727zM71.413 14.734c0-5.35 4.242-9.404 9.779-9.404 5.536 0 9.778 4.055 9.778 9.404 0 5.304-4.242 9.337-9.788 9.337s-9.769-4.033-9.769-9.337zm14.77-.034c0-2.755-2.165-4.873-4.994-4.873-2.829 0-4.993 2.122-4.993 4.873 0 2.751 2.165 4.852 4.993 4.852 2.827 0 4.994-2.11 4.994-4.852zM101.442 23.618l-4.761-7.735v7.735h-4.728L91.93 5.806h6.76c3.845 0 6.595 2.597 6.595 5.786a5.375 5.375 0 0 1-3.081 4.873l4.772 7.148-5.535.005zm-4.783-9.99 1.928.011c1.004.011 1.921-.696 1.921-1.79 0-1.096-.927-1.792-1.921-1.792h-1.928v3.571zM108.494 43.57H88.7v.25h19.794v-.25zM20.593 43.57H.799v.25h19.794v-.25zM26.821 41.28h1.564c.713 0 1.23.102 1.55.307.324.201.486.523.486.966 0 .3-.071.547-.213.74a.838.838 0 0 1-.56.347v.034c.318.071.547.204.687.399.142.195.213.454.213.777 0 .459-.166.816-.499 1.073-.33.257-.779.385-1.347.385h-1.88v-5.027zm1.066 1.992h.619c.289 0 .497-.045.625-.134.131-.09.196-.238.196-.444 0-.193-.07-.33-.213-.413-.14-.085-.362-.127-.667-.127h-.56v1.118zm0 .846v1.31h.694c.294 0 .51-.056.65-.169.14-.112.21-.284.21-.516 0-.417-.298-.625-.894-.625h-.66zM30.92 42.464h1.147l.726 2.163a3 3 0 0 1 .127.667h.02a2.95 2.95 0 0 1 .148-.667l.712-2.163h1.124L33.298 46.8c-.149.401-.362.701-.64.9-.274.2-.596.3-.965.3a2.43 2.43 0 0 1-.533-.059v-.832c.126.03.263.045.412.045a.734.734 0 0 0 .485-.172c.14-.112.249-.283.327-.512l.062-.19-1.527-3.816zM40.356 44.912c0 .454-.164.812-.492 1.073-.325.261-.779.392-1.361.392-.536 0-1.01-.101-1.423-.303v-.99c.339.151.625.258.859.32.236.062.452.092.646.092.234 0 .413-.044.537-.134.126-.089.189-.222.189-.398a.433.433 0 0 0-.083-.262.9.9 0 0 0-.244-.223 6.044 6.044 0 0 0-.65-.34c-.307-.145-.537-.284-.69-.417a1.56 1.56 0 0 1-.368-.464 1.325 1.325 0 0 1-.138-.62c0-.444.15-.794.45-1.048.303-.255.72-.382 1.252-.382.261 0 .51.031.746.093.238.062.487.15.746.261l-.344.83a4.968 4.968 0 0 0-.667-.231 2.117 2.117 0 0 0-.516-.066c-.201 0-.356.047-.464.142a.465.465 0 0 0-.161.367c0 .095.022.177.065.248a.756.756 0 0 0 .206.203c.096.064.322.181.678.35.47.225.791.451.965.678.175.225.262.501.262.829zM42.776 45.555c.266 0 .46-.076.584-.227.124-.154.192-.42.203-.801V44.4c0-.413-.064-.709-.192-.888-.126-.178-.33-.268-.612-.268-.493 0-.74.388-.74 1.162 0 .386.061.673.183.864.124.19.315.285.574.285zm-.375.822c-.454 0-.809-.174-1.065-.523-.257-.35-.386-.838-.386-1.461 0-.629.131-1.12.392-1.472.264-.353.624-.53 1.08-.53.243 0 .455.046.636.138.18.091.34.234.478.426h.027l.093-.491h.887V48h-1.052v-1.613c0-.14.015-.332.045-.578h-.045a1.114 1.114 0 0 1-.447.423c-.185.097-.4.145-.643.145zM48.362 46.308l-.14-.492h-.056a1.117 1.117 0 0 1-.477.416 1.648 1.648 0 0 1-.705.145c-.452 0-.792-.12-1.021-.361-.23-.243-.344-.592-.344-1.046v-2.506h1.048v2.245c0 .277.05.486.148.626.099.137.256.206.471.206.294 0 .506-.097.636-.292.131-.197.196-.523.196-.977v-1.808h1.049v3.844h-.805zM52.708 46.308l-.203-.523h-.028c-.176.223-.358.378-.546.465-.186.084-.429.127-.729.127-.369 0-.66-.106-.873-.317-.211-.21-.316-.51-.316-.9 0-.408.142-.709.426-.901.286-.195.717-.303 1.292-.324l.667-.02v-.169c0-.39-.2-.584-.598-.584-.307 0-.668.092-1.083.278l-.347-.708a3.124 3.124 0 0 1 1.471-.348c.516 0 .911.113 1.186.337.275.225.413.567.413 1.025v2.562h-.732zm-.31-1.781-.405.014c-.305.009-.532.064-.681.165-.149.1-.223.254-.223.46 0 .296.17.444.508.444.243 0 .437-.07.581-.21a.734.734 0 0 0 .22-.557v-.316zM56.668 42.391c.142 0 .26.01.354.031l-.079.984a1.202 1.202 0 0 0-.31-.035c-.334 0-.595.086-.783.258-.186.172-.279.413-.279.722v1.957h-1.048v-3.844h.794l.155.646h.051c.12-.215.28-.389.481-.52.205-.132.426-.199.664-.199zM59.312 43.138c-.223 0-.397.07-.523.213-.126.14-.198.339-.217.598h1.472c-.005-.259-.072-.459-.203-.598a.684.684 0 0 0-.53-.213zm.148 3.239c-.62 0-1.103-.17-1.451-.513-.349-.341-.523-.825-.523-1.45 0-.645.16-1.142.482-1.493.323-.353.768-.53 1.337-.53.543 0 .966.155 1.268.465.303.309.454.737.454 1.282v.51h-2.479c.012.297.1.53.265.697.165.168.397.251.695.251a2.878 2.878 0 0 0 1.302-.302v.811a2.41 2.41 0 0 1-.587.203 3.62 3.62 0 0 1-.764.069zM65.355 43.35l1.049-2.07h1.148l-1.667 3.071v1.957h-1.06v-1.922l-1.667-3.105h1.156l1.041 2.07zM70.543 46.308l-.203-.523h-.028c-.176.223-.358.378-.546.465-.186.084-.429.127-.729.127-.369 0-.66-.106-.873-.317-.21-.21-.316-.51-.316-.9 0-.408.142-.709.426-.901.286-.195.717-.303 1.293-.324l.667-.02v-.169c0-.39-.2-.584-.599-.584-.307 0-.668.092-1.083.278l-.347-.708a3.124 3.124 0 0 1 1.472-.348c.515 0 .91.113 1.186.337.275.225.412.567.412 1.025v2.562h-.732zm-.31-1.781-.405.014c-.305.009-.532.064-.68.165-.15.1-.224.254-.224.46 0 .296.17.444.508.444.243 0 .437-.07.581-.21a.734.734 0 0 0 .22-.557v-.316zM74.503 42.391c.142 0 .26.01.354.031l-.079.984a1.202 1.202 0 0 0-.31-.035c-.334 0-.595.086-.783.258-.186.172-.279.413-.279.722v1.957h-1.048v-3.844h.794l.155.646h.051c.12-.215.28-.389.482-.52.204-.132.425-.199.663-.199zM76.772 46.377c-.451 0-.807-.175-1.066-.526-.256-.351-.385-.837-.385-1.458 0-.63.131-1.121.392-1.472.264-.353.626-.53 1.087-.53.483 0 .852.188 1.107.564h.034a4.29 4.29 0 0 1-.08-.767v-1.23h1.053v5.35h-.805l-.202-.498h-.045c-.238.378-.602.567-1.09.567zm.368-.836c.268 0 .464-.078.588-.234.126-.156.195-.42.206-.794V44.4c0-.413-.064-.709-.192-.888-.127-.178-.333-.268-.62-.268-.233 0-.415.1-.546.3-.128.196-.192.484-.192.862 0 .379.065.663.196.853.13.188.317.282.56.282zM82.692 45.166c0 .395-.138.695-.413.901-.272.207-.681.31-1.227.31-.28 0-.518-.02-.715-.059a2.632 2.632 0 0 1-.553-.165v-.866c.194.092.413.168.656.23.245.062.46.093.647.093.38 0 .57-.11.57-.33a.27.27 0 0 0-.075-.2 1.03 1.03 0 0 0-.262-.175 6.084 6.084 0 0 0-.495-.23 3.165 3.165 0 0 1-.653-.344.994.994 0 0 1-.302-.361 1.231 1.231 0 0 1-.093-.506c0-.341.132-.605.395-.79.266-.189.642-.283 1.128-.283.463 0 .913.101 1.35.303l-.316.756a5.845 5.845 0 0 0-.54-.203 1.695 1.695 0 0 0-.511-.079c-.31 0-.465.084-.465.252 0 .093.05.175.148.244.101.068.32.17.657.306.3.121.52.235.66.34.14.106.243.227.31.365.066.137.099.301.099.491z" fill="#1C2F59"/>
</svg>
