<svg xmlns="http://www.w3.org/2000/svg" width="361.916" height="83.573" viewBox="0 0 361.916 83.573">
  <g id="kangarookids-logo" transform="translate(1040 -120.5)">
    <g id="Group_29" data-name="Group 29" transform="translate(-1040 120.5)">
      <g id="Group_8" data-name="Group 8" transform="translate(183.975 60.678)">
        <rect id="Rectangle_3" data-name="Rectangle 3" width="1.616" height="8.438" transform="translate(0 0.131)" fill="#fff"/>
        <path id="Path_18" data-name="Path 18" d="M-785.225,201.148h1.567v8.438h-1.531l-4.339-5.808v5.808h-1.579v-8.438h1.531l4.351,5.822Z" transform="translate(794.796 -201.018)" fill="#fff"/>
        <path id="Path_19" data-name="Path 19" d="M-779.726,201.148h6.883v1.436h-2.628v7H-777.1v-7h-2.628Z" transform="translate(791.996 -201.018)" fill="#fff"/>
        <path id="Path_20" data-name="Path 20" d="M-769.078,201.148h6.184v1.411h-4.569v2.087h4.1v1.411h-4.1v2.119h4.712v1.411h-6.328Z" transform="translate(789.376 -201.018)" fill="#fff"/>
        <path id="Path_21" data-name="Path 21" d="M-753.232,209.586l-1.458-2.493a2.462,2.462,0,0,1-.3.012h-1.9v2.481h-1.615v-8.438h3.52a3.786,3.786,0,0,1,2.531.763,2.654,2.654,0,0,1,.892,2.145,3.173,3.173,0,0,1-.428,1.687,2.629,2.629,0,0,1-1.246,1.048l1.856,2.8Zm-3.664-3.9h1.9a2.146,2.146,0,0,0,1.4-.4,1.449,1.449,0,0,0,.482-1.182,1.4,1.4,0,0,0-.482-1.158,2.2,2.2,0,0,0-1.4-.384h-1.9Z" transform="translate(786.776 -201.018)" fill="#fff"/>
        <path id="Path_22" data-name="Path 22" d="M-741.072,201.148h1.567v8.438h-1.531l-4.339-5.808v5.808h-1.579v-8.438h1.531l4.351,5.822Z" transform="translate(783.933 -201.018)" fill="#fff"/>
        <path id="Path_23" data-name="Path 23" d="M-728.424,209.587l-.747-1.782h-4.122l-.747,1.782h-1.675l3.7-8.435h1.676l3.652,8.435Zm-4.29-3.17h2.965l-1.47-3.544Z" transform="translate(781.169 -201.019)" fill="#fff"/>
        <path id="Path_24" data-name="Path 24" d="M-724.767,201.148h6.883v1.436h-2.628v7h-1.627v-7h-2.628Z" transform="translate(778.475 -201.018)" fill="#fff"/>
        <rect id="Rectangle_4" data-name="Rectangle 4" width="1.617" height="8.438" transform="translate(61.737 0.131)" fill="#fff"/>
        <path id="Path_25" data-name="Path 25" d="M-703.327,201.573a4.2,4.2,0,0,1,1.62,1.555,4.186,4.186,0,0,1,.592,2.194,4.213,4.213,0,0,1-.592,2.2,4.288,4.288,0,0,1-1.62,1.574,4.6,4.6,0,0,1-2.284.578,4.6,4.6,0,0,1-2.283-.578,4.31,4.31,0,0,1-1.623-1.574,4.233,4.233,0,0,1-.59-2.2,4.205,4.205,0,0,1,.59-2.194,4.224,4.224,0,0,1,1.623-1.555,4.662,4.662,0,0,1,2.283-.564,4.663,4.663,0,0,1,2.284.564m-3.693,1.261a2.818,2.818,0,0,0-1.05,1.036,2.815,2.815,0,0,0-.386,1.453,2.814,2.814,0,0,0,.392,1.457,2.894,2.894,0,0,0,1.049,1.048,2.769,2.769,0,0,0,1.428.386,2.718,2.718,0,0,0,1.411-.386,2.822,2.822,0,0,0,1.031-1.048,2.883,2.883,0,0,0,.379-1.457,2.853,2.853,0,0,0-.379-1.453,2.806,2.806,0,0,0-1.031-1.036,2.733,2.733,0,0,0-1.411-.379,2.812,2.812,0,0,0-1.433.379" transform="translate(774.869 -200.983)" fill="#fff"/>
        <path id="Path_26" data-name="Path 26" d="M-690.413,201.148h1.567v8.438h-1.531l-4.339-5.808v5.808h-1.579v-8.438h1.531l4.351,5.822Z" transform="translate(771.471 -201.018)" fill="#fff"/>
        <path id="Path_27" data-name="Path 27" d="M-677.765,209.587l-.747-1.782h-4.121l-.748,1.782h-1.675l3.7-8.435h1.676l3.652,8.435Zm-4.289-3.17h2.965l-1.47-3.544Z" transform="translate(768.706 -201.019)" fill="#fff"/>
        <path id="Path_28" data-name="Path 28" d="M-671.725,201.148h1.615v6.98h3.64v1.457h-5.255Z" transform="translate(765.426 -201.018)" fill="#fff"/>
        <path id="Path_29" data-name="Path 29" d="M-653.235,201.911a2.683,2.683,0,0,1,.874,2.145,2.9,2.9,0,0,1-.874,2.248,3.516,3.516,0,0,1-2.465.8h-1.844v2.481h-1.615v-8.438h3.459a3.635,3.635,0,0,1,2.465.763m-1.145,3.373a1.442,1.442,0,0,0,.489-1.182,1.391,1.391,0,0,0-.489-1.158,2.22,2.22,0,0,0-1.4-.384h-1.761v3.121h1.761a2.179,2.179,0,0,0,1.4-.4" transform="translate(762.335 -201.018)" fill="#fff"/>
        <path id="Path_30" data-name="Path 30" d="M-643.091,209.586l-1.458-2.493a2.477,2.477,0,0,1-.3.012h-1.9v2.481h-1.615v-8.438h3.519a3.785,3.785,0,0,1,2.531.763,2.652,2.652,0,0,1,.893,2.145,3.174,3.174,0,0,1-.428,1.687,2.628,2.628,0,0,1-1.247,1.048l1.856,2.8Zm-3.664-3.9h1.9a2.147,2.147,0,0,0,1.4-.4,1.449,1.449,0,0,0,.482-1.182,1.4,1.4,0,0,0-.482-1.158,2.2,2.2,0,0,0-1.4-.384h-1.9Z" transform="translate(759.681 -201.018)" fill="#fff"/>
        <path id="Path_31" data-name="Path 31" d="M-636.812,201.148h6.184v1.411H-635.2v2.087h4.1v1.411h-4.1v2.119h4.712v1.411h-6.328Z" transform="translate(756.838 -201.018)" fill="#fff"/>
        <path id="Path_32" data-name="Path 32" d="M-622.521,202.662a4,4,0,0,0-1.2-.218,1.674,1.674,0,0,0-.916.218.681.681,0,0,0-.337.6.8.8,0,0,0,.235.585,1.84,1.84,0,0,0,.59.386,9.162,9.162,0,0,0,.97.329,10.3,10.3,0,0,1,1.4.507,2.5,2.5,0,0,1,.933.746,2.054,2.054,0,0,1,.386,1.3,2.227,2.227,0,0,1-.415,1.343,2.611,2.611,0,0,1-1.145.875,4.339,4.339,0,0,1-1.67.3,5.228,5.228,0,0,1-1.928-.365,5.45,5.45,0,0,1-1.64-.985l.676-1.373a4.955,4.955,0,0,0,1.433.929,3.825,3.825,0,0,0,1.483.337,1.9,1.9,0,0,0,1.061-.258.812.812,0,0,0,.386-.706.809.809,0,0,0-.235-.6,1.784,1.784,0,0,0-.595-.382c-.244-.1-.572-.2-.99-.325a11.517,11.517,0,0,1-1.4-.493,2.437,2.437,0,0,1-.927-.73,2.011,2.011,0,0,1-.386-1.283,2.141,2.141,0,0,1,.392-1.284,2.51,2.51,0,0,1,1.108-.849,4.247,4.247,0,0,1,1.658-.3,5.582,5.582,0,0,1,1.621.241,5.471,5.471,0,0,1,1.428.651l-.651,1.411a6.137,6.137,0,0,0-1.332-.615" transform="translate(754.486 -200.975)" fill="#fff"/>
        <path id="Path_33" data-name="Path 33" d="M-611.367,202.742a2.86,2.86,0,0,0-1.235-.29,2.846,2.846,0,0,0-1.435.375,2.711,2.711,0,0,0-1.023,1.031,2.853,2.853,0,0,0-.375,1.439,2.855,2.855,0,0,0,.375,1.441,2.76,2.76,0,0,0,1.023,1.036,2.806,2.806,0,0,0,1.435.382,2.994,2.994,0,0,0,1.211-.267,3.429,3.429,0,0,0,1.08-.734l.952,1.06a4.94,4.94,0,0,1-1.543,1.066,4.329,4.329,0,0,1-1.783.394,4.416,4.416,0,0,1-2.231-.581,4.232,4.232,0,0,1-1.59-1.572,4.289,4.289,0,0,1-.579-2.2,4.2,4.2,0,0,1,.59-2.194,4.253,4.253,0,0,1,1.61-1.555,4.578,4.578,0,0,1,2.26-.566,4.56,4.56,0,0,1,1.772.363,4.33,4.33,0,0,1,1.483,1l-.94,1.179a3.174,3.174,0,0,0-1.056-.807" transform="translate(751.985 -200.983)" fill="#fff"/>
        <path id="Path_34" data-name="Path 34" d="M-605.08,201.148h1.615v3.6h4.207v-3.6h1.615v8.438h-1.615v-3.422h-4.207v3.422h-1.615Z" transform="translate(749.031 -201.018)" fill="#fff"/>
        <path id="Path_35" data-name="Path 35" d="M-586.55,201.573a4.207,4.207,0,0,1,1.62,1.555,4.185,4.185,0,0,1,.592,2.194,4.212,4.212,0,0,1-.592,2.2,4.293,4.293,0,0,1-1.62,1.574,4.6,4.6,0,0,1-2.284.578,4.607,4.607,0,0,1-2.285-.578,4.317,4.317,0,0,1-1.621-1.574,4.233,4.233,0,0,1-.59-2.2,4.2,4.2,0,0,1,.59-2.194,4.23,4.23,0,0,1,1.621-1.555,4.67,4.67,0,0,1,2.285-.564,4.663,4.663,0,0,1,2.284.564m-3.694,1.261a2.822,2.822,0,0,0-1.049,1.036,2.816,2.816,0,0,0-.386,1.453,2.814,2.814,0,0,0,.392,1.457,2.894,2.894,0,0,0,1.049,1.048,2.77,2.77,0,0,0,1.428.386,2.718,2.718,0,0,0,1.411-.386,2.824,2.824,0,0,0,1.031-1.048,2.884,2.884,0,0,0,.378-1.457,2.854,2.854,0,0,0-.378-1.453,2.808,2.808,0,0,0-1.031-1.036,2.733,2.733,0,0,0-1.411-.379,2.817,2.817,0,0,0-1.434.379" transform="translate(746.141 -200.983)" fill="#fff"/>
        <path id="Path_36" data-name="Path 36" d="M-574,201.573a4.2,4.2,0,0,1,1.62,1.555,4.185,4.185,0,0,1,.592,2.194,4.212,4.212,0,0,1-.592,2.2A4.288,4.288,0,0,1-574,209.1a4.6,4.6,0,0,1-2.284.578,4.607,4.607,0,0,1-2.285-.578,4.317,4.317,0,0,1-1.621-1.574,4.233,4.233,0,0,1-.59-2.2,4.205,4.205,0,0,1,.59-2.194,4.231,4.231,0,0,1,1.621-1.555,4.67,4.67,0,0,1,2.285-.564,4.663,4.663,0,0,1,2.284.564m-3.693,1.261a2.818,2.818,0,0,0-1.05,1.036,2.815,2.815,0,0,0-.386,1.453,2.814,2.814,0,0,0,.392,1.457,2.893,2.893,0,0,0,1.049,1.048,2.772,2.772,0,0,0,1.428.386,2.718,2.718,0,0,0,1.411-.386,2.829,2.829,0,0,0,1.031-1.048,2.885,2.885,0,0,0,.379-1.457,2.854,2.854,0,0,0-.379-1.453,2.813,2.813,0,0,0-1.031-1.036,2.733,2.733,0,0,0-1.411-.379,2.812,2.812,0,0,0-1.433.379" transform="translate(743.054 -200.983)" fill="#fff"/>
        <path id="Path_37" data-name="Path 37" d="M-566.97,201.148h1.615v6.98h3.64v1.457h-5.255Z" transform="translate(739.656 -201.018)" fill="#fff"/>
      </g>
      <path id="Path_38" data-name="Path 38" d="M-921.822,141.254s-.094,8.344-.186,20.159c0,0,3.845-3.937,9.469-10.033,0,0,1.923,2.016,4.268,4.454,0,0-3.8,3.658-6.986,6.753,0,0,2.718,3.422,7.829,9.893,0,0-2.251,1.359-5.346,3.516,0,0-3.235-4.595-7.313-10.033l-1.922,2.344s-.095,3.422-.142,7.923c0,0-3,0-5.955.094,0,0-.047-15.425-.234-35.119Z" transform="translate(1012.531 -125.594)" fill="#fff"/>
      <path id="Path_39" data-name="Path 39" d="M-899.223,163.06a10,10,0,0,1,10.268-7.925c6.144,0,10.317,3.565,10.457,10.878.093,5.252.14,12.052.14,12.052s-2.578.093-5.2.093c0,0-.094-1.172-.235-2.3a9.362,9.362,0,0,1-7.6,3.844c-3.375,0-7.97-1.736-7.97-6.891,0-6.283,8.3-8.347,14.676-8.347-.235-2.344-1.266-4.267-4.127-4.267a4.605,4.605,0,0,0-4.454,3.656s-2.579-.418-5.955-.8m15.145,5.252a13.2,13.2,0,0,0-1.359-.047c-4.173,0-7.55,1.874-7.55,4.17a2.559,2.559,0,0,0,2.814,2.44,6.462,6.462,0,0,0,6.094-6.564" transform="translate(1005.402 -129.02)" fill="#fff"/>
      <path id="Path_40" data-name="Path 40" d="M-852.382,177.687c.186-5.766.186-8.063.094-12.1-.094-3.188-1.218-4.83-3.422-4.783-3.517.1-5.44,3.425-5.533,7.691-.094,3.563,0,7.408.14,11.345-2.437-.094-4.219-.094-6.1-.094-.14-10.784-.515-24.052-.515-24.052,2.579.047,5.3.094,5.3.094-.1,1.687-.142,3.376-.142,3.376a10.446,10.446,0,0,1,7.6-3.656c5.016,0,8.862,2.812,8.862,10.173,0,5.206-.188,12.1-.188,12.1-2.766,0-6.095-.093-6.095-.093" transform="translate(997.617 -129.113)" fill="#fff"/>
      <path id="Path_41" data-name="Path 41" d="M-836.387,161.569c-.047-5.065,4.173-8.767,10.645-8.767a14.227,14.227,0,0,1,5.392,1.125s2.344-3.563,4.171-6.377c0,0,1.877,1.032,4.5,2.815,0,0-2.158,2.905-4.549,6.374a7.524,7.524,0,0,1,2.111,5.252c0,5.629-4.595,8.487-10.222,8.63a18.271,18.271,0,0,1-3.985-.424,2.545,2.545,0,0,0-.375,1.406,2.54,2.54,0,0,0,.28,1.172,18.716,18.716,0,0,1,2.766-.14c6.611,0,12.286,2.58,12.286,7.455,0,5.439-5.018,8.066-11.066,8.066-8.768,0-12.755-3.752-12.755-7.972,0-2.766,1.642-4.688,3.986-5.954a4.176,4.176,0,0,1-.562-2.2,5.1,5.1,0,0,1,1.311-3.471,8.244,8.244,0,0,1-3.938-6.985m5.439,18.382c0,2.015,2.156,3.467,5.767,3.467,3.048,0,5.534-1.125,5.534-3.329,0-1.78-2.438-3.235-5.767-3.279-4.267-.047-5.534,1.733-5.534,3.141m.844-18.335c0,2.954,2.109,4.831,5.111,4.831a4.431,4.431,0,0,0,4.735-4.644c0-2.625-2.062-4.5-5.157-4.547a4.492,4.492,0,0,0-4.689,4.36" transform="translate(990.106 -127.154)" fill="#fff"/>
      <path id="Path_42" data-name="Path 42" d="M-804.213,163.06a10,10,0,0,1,10.269-7.925c6.144,0,10.316,3.565,10.456,10.878.094,5.252.14,12.052.14,12.052s-2.579.093-5.2.093c0,0-.093-1.172-.234-2.3a9.366,9.366,0,0,1-7.6,3.844c-3.376,0-7.972-1.736-7.972-6.891,0-6.283,8.3-8.347,14.677-8.347-.236-2.344-1.267-4.267-4.127-4.267a4.6,4.6,0,0,0-4.454,3.656s-2.579-.418-5.956-.8m15.145,5.252a13.227,13.227,0,0,0-1.359-.047c-4.173,0-7.55,1.874-7.55,4.17a2.559,2.559,0,0,0,2.814,2.44,6.463,6.463,0,0,0,6.1-6.564" transform="translate(982.029 -129.02)" fill="#fff"/>
      <path id="Path_43" data-name="Path 43" d="M-758.277,161.558c-5.251.187-7.737,1.972-7.783,8.957-.047,3.609,0,8.391,0,8.391-2.391.143-6.048.189-6.048.189-.047-8.629-.467-23.584-.467-23.584,2.156,0,5.484.093,5.484.093-.142,2.014-.281,4.314-.281,4.314,1.876-2.627,5.017-4.127,8.956-4.173.047,2.344.14,5.813.14,5.813" transform="translate(974.212 -129.113)" fill="#fff"/>
      <path id="Path_44" data-name="Path 44" d="M-739.854,154.577c7.409,0,12.52,5.065,12.52,11.863,0,7.783-4.6,12.894-12.145,12.894-8.158,0-12.332-5.439-12.332-11.863,0-7.829,5.252-12.894,11.956-12.894m.235,4.921c-3.7.094-5.814,3.753-5.814,7.6s2.015,7.219,5.767,7.219c3.7,0,5.954-3.563,5.954-7.219,0-4.126-2.3-7.6-5.908-7.6" transform="translate(969.103 -128.883)" fill="#fff"/>
      <path id="Path_45" data-name="Path 45" d="M-704.473,154.577c7.407,0,12.519,5.065,12.519,11.863,0,7.783-4.595,12.894-12.144,12.894-8.158,0-12.332-5.439-12.332-11.863,0-7.829,5.252-12.894,11.957-12.894m.235,4.921c-3.7.094-5.813,3.753-5.813,7.6s2.015,7.219,5.766,7.219c3.7,0,5.954-3.563,5.954-7.219,0-4.126-2.3-7.6-5.907-7.6" transform="translate(960.399 -128.883)" fill="#fff"/>
      <path id="Path_46" data-name="Path 46" d="M-660.789,141.254s-.094,8.344-.187,20.159c0,0,3.845-3.937,9.47-10.033,0,0,1.922,2.016,4.267,4.454,0,0-3.8,3.658-6.986,6.753,0,0,2.719,3.422,7.829,9.893,0,0-2.251,1.359-5.344,3.516,0,0-3.235-4.595-7.314-10.033l-1.922,2.344s-.093,3.422-.142,7.923c0,0-3,0-5.954.094,0,0-.047-15.425-.234-35.119Z" transform="translate(948.315 -125.594)" fill="#fff"/>
      <path id="Path_47" data-name="Path 47" d="M-633.13,139.34A4.137,4.137,0,0,1-629,143.607a4.168,4.168,0,0,1-4.222,4.5,4.146,4.146,0,0,1-4.359-4.41,4.287,4.287,0,0,1,4.454-4.36m-3.1,12.193s2.953.093,6.236.093c0,0-.187,9.095-.234,23.161,0,0-3.422.094-6.189.094,0,0,.187-14.207.187-23.348" transform="translate(941.003 -125.135)" fill="#fff"/>
      <path id="Path_48" data-name="Path 48" d="M-599.966,144.3s-.234,16.55-.422,31.18c0,0-2.391-.047-5.766-.047,0,0,.047-1.268.047-2.438a9.4,9.4,0,0,1-6.987,2.905c-5.439,0-10.128-3.845-10.128-11.486,0-6.613,4.267-12.614,10.268-12.614a10.208,10.208,0,0,1,6.658,2.672s-.14-3.563-.281-10.22c0,0,2.39.093,6.61.047m-11.909,12.7c-3.188,0-5.065,3.331-5.065,6.8,0,4.267,2.487,6.986,5.488,6.986,3.516,0,5.157-2.953,5.157-6.471,0-4.124-2.015-7.315-5.58-7.315" transform="translate(937.469 -126.344)" fill="#fff"/>
      <path id="Path_49" data-name="Path 49" d="M-567.516,163.221s-2.579.327-5.58.611a5.542,5.542,0,0,0-5.722-4.5c-2.108,0-4.032,1.031-4.125,2.817,0,2.858,4.783,2.858,8.814,3.983,3,.842,5.769,2.344,5.769,6.1,0,4.688-4.549,7.126-9.378,7.126-5.063,0-10.408-2.671-11.161-8.206,0,0,1.831-.047,5.816-.28.611,2.438,3.235,3.612,5.345,3.612,1.688,0,3.047-.7,3.047-2.018,0-2.482-5.063-2.482-9.188-3.891-2.815-.982-5.206-2.625-5.206-6.236,0-5.345,4.829-8.064,9.941-8.064,5.344,0,11.018,3,11.627,8.955" transform="translate(929.072 -128.807)" fill="#fff"/>
      <g id="Group_28" data-name="Group 28">
        <g id="Group_26" data-name="Group 26">
          <path id="Path_50" data-name="Path 50" d="M-992.986,143.324H-993v.006Z" transform="translate(1028.437 -126.115)" fill="#ffd430"/>
          <path id="Path_51" data-name="Path 51" d="M-951.287,130.126c-.058-.877-.337-1.208-.831-.993q-1.447.619-3.3,1.621.174,2.745,3.259,3.183c.152.017.3.029.465.047A17.191,17.191,0,0,0-951.287,130.126Z" transform="translate(1019.192 -122.608)" fill="#fff"/>
          <path id="Path_52" data-name="Path 52" d="M-954.271,186.683l-.005-.023a.906.906,0,0,0-.117.041l.006.006C-954.346,186.7-954.306,186.689-954.271,186.683Z" transform="translate(1018.94 -136.776)" fill="#f0c122"/>
          <path id="Path_53" data-name="Path 53" d="M-984.779,155.988l-.035-.011.017.005a.131.131,0,0,1-.017.058c.011-.017.017-.035.029-.052Z" transform="translate(1026.424 -129.228)" fill="#f0c122"/>
          <path id="Path_54" data-name="Path 54" d="M-1005.109,168.2v-.017h-.017Z" transform="translate(1031.421 -132.23)" fill="#f0c122"/>
          <path id="Path_55" data-name="Path 55" d="M-1017.528,205.245a4.622,4.622,0,0,0-.418.453c-.011.012-.023.035-.035.047a10.041,10.041,0,0,0-.761.947l-.052.069q-1.569,1.918-3.253,3.7a65.524,65.524,0,0,1-11.358,9.54l-2.673,1.772c-.517.29-.784.552-.8.79a.489.489,0,0,0,.052.279.814.814,0,0,0,.546.25,5.707,5.707,0,0,0,1.6-.069c.285-.041.534-.087.749-.122a9.832,9.832,0,0,0,1.58-.412,1.521,1.521,0,0,1,.7-.139.163.163,0,0,1,.133.081.572.572,0,0,1-.314.383c-.245.133-.488.256-.726.366a8.76,8.76,0,0,1-1.708.454c-.488.063-.767.168-.825.308a.218.218,0,0,0,.023.215.547.547,0,0,0,.25.186,4.416,4.416,0,0,0,1.028.308,13.168,13.168,0,0,0,1.632.1,9.571,9.571,0,0,0,5.113-1.511,15.469,15.469,0,0,0,4.939-5.525.9.9,0,0,1,.058-.1q2.187-3.7,4.439-7.053a12.085,12.085,0,0,1,1.488-1.825l.121-.127a8.756,8.756,0,0,1,.884-.755c.116-.087.238-.174.366-.262a4.78,4.78,0,0,0,.842-.894.95.95,0,0,0,.076-.82,1.129,1.129,0,0,0-.593-.691q-.454-.217-.889-.418a1.748,1.748,0,0,0-.686-.209,1.932,1.932,0,0,0-.511.075A2.473,2.473,0,0,0-1017.528,205.245Z" transform="translate(1039.233 -141.179)" fill="#ffd430"/>
          <path id="Path_56" data-name="Path 56" d="M-975.1,150.976l-.058-.023c0,.011-.006.023-.006.035Z" transform="translate(1024.051 -127.992)" fill="#f0c122"/>
          <path id="Path_57" data-name="Path 57" d="M-972.941,131.829q-3.084-.435-3.259-3.183a34.433,34.433,0,0,1-20.846,3.306c-2.313-.5-4.032-2.457-5.177-5.862s-4.317-5.27-9.522-5.589c-.72.041-1,.669-.831,1.883a11.416,11.416,0,0,0,3.725,5.252,48.545,48.545,0,0,0,5.264,3.178c2.016,1.063,2.678,2.034,2,2.9a.357.357,0,0,1-.075.139,2.187,2.187,0,0,1-.25.14q-2.135,1.071-6.943-1.378-5.1-2.579-11.469,3.126-.732,1.011,2.278,2a16.222,16.222,0,0,0,5.809.884,14.794,14.794,0,0,0,5.816-1.616q2.276-1.28,2.121,1.981c.081.837.127,2,.146,3.48v.035a49.552,49.552,0,0,1-.959,7.995,7.068,7.068,0,0,1-2.62,1.383c-.924.244-1.644.424-2.167.54a16.315,16.315,0,0,0-1.662.459,12.4,12.4,0,0,0-1.621.674,13.431,13.431,0,0,0-1.447.935c-.174.128-.314.227-.424.314-.174.146-.384.314-.616.517a1.765,1.765,0,0,0-.5.633.151.151,0,0,0-.018.047c-.075.2-.046.337.1.406.163.081.465-.052.924-.389a3.948,3.948,0,0,1,.836-.546c.081-.023.128-.023.157,0,.006,0,.006.005.012.017.017.029-.169.162-.547.4a4.017,4.017,0,0,0-.836.691,2.066,2.066,0,0,0-.146.169,1.109,1.109,0,0,0-.262.494.354.354,0,0,0,.081.29c.146.192.407.122.779-.2a7.869,7.869,0,0,1,.935-.72c.262-.157.419-.215.477-.169h.017v.017a.049.049,0,0,1-.005.029q-.035.1-.366.3a3.987,3.987,0,0,0-.7.593c-.064.058-.122.122-.18.185-.215.256-.308.459-.273.611a.3.3,0,0,0,.041.087c.005.023.023.035.035.052a.158.158,0,0,0,.041.029c.185.116.569-.047,1.145-.494a1.584,1.584,0,0,1,.163-.116c.185-.111.4-.232.621-.378a9.424,9.424,0,0,1,1.888-1.22,18.186,18.186,0,0,1,5.345-1.8c-.3.848-.621,1.7-.964,2.557-.563,1.405-1.133,2.678-1.719,3.828q-2.371,4.907-4.172,6.4a5.4,5.4,0,0,1-3.1,1.516,4.379,4.379,0,0,1-3.178-1.231q-2.074-1.691-3.323-6.682a18.786,18.786,0,0,0-4.148-8.262q-3.774-3.469-10.051-3.021-2.588.148-3.178.7c-.516.54.32.86,2.516.97q10.109.426,11.312,13.078a18.219,18.219,0,0,0,3.643,9.894,16.583,16.583,0,0,0,7.658,5.183,15.1,15.1,0,0,0,4.136.918,23.848,23.848,0,0,0,3.724-.11,19.288,19.288,0,0,0,3.236-.581,31.162,31.162,0,0,0,3.434-1.331q2.154-.958,2.981-.325a1.662,1.662,0,0,1,.552,1.1,8.178,8.178,0,0,1,.012,1.988c-.041.278-.064.54-.075.772l-.21,2c-.011.883.372,1.319,1.157,1.307a22.419,22.419,0,0,0,5.171-3.388,35.177,35.177,0,0,1,8.36-5.124,47.983,47.983,0,0,1,4.857-1.8,26.2,26.2,0,0,0,3.95-1.139c.912-.378,1.267-.767,1.064-1.162-.029-.052-.058-.111-.094-.163a5.862,5.862,0,0,0-3.12-1.359.02.02,0,0,0-.017-.006.9.9,0,0,1-.4-.157c-.076-.081.052-.168.377-.256a.092.092,0,0,1,.035-.011c.017-.006.046-.012.069-.017l-.006-.006a.9.9,0,0,1,.117-.041l.005.023a3.318,3.318,0,0,1,2,.7q1.011.671,1.237.523v-.006s.023-.035.075-.1a.52.52,0,0,0-.081-.431,2.833,2.833,0,0,0-.378-.476,6.589,6.589,0,0,0-5.718-2c-.069.012-.145.023-.22.029q-4.489.645-10.1,7.442-4.1,4.8-5.356,4.741-2.606.079-1.336-3.666c.005,0,.005-.006.005-.011a15.314,15.314,0,0,0,.1-10.557l-2.788-3.835a35.812,35.812,0,0,0-2.568-3.1c-.081-.081-.157-.163-.238-.25l-.552-.569,1.807.912a21.6,21.6,0,0,0,6.182,1.767,15.9,15.9,0,0,0,4.817.011c.732-.151,1.115-.314,1.156-.476l.017-.006a.281.281,0,0,0-.063-.192.4.4,0,0,0-.268-.111,2.922,2.922,0,0,0-.807.087,4.229,4.229,0,0,1-1.046.168c-.11-.023-.168-.052-.163-.087s.238-.094.715-.157a4.372,4.372,0,0,0,1.331-.407c.412-.209.587-.43.523-.685-.006-.023-.017-.052-.023-.069-.1-.192-.378-.216-.825-.081a9.015,9.015,0,0,1-1.237.29c-.314.041-.494.029-.529-.047a.019.019,0,0,1-.006-.029,1.273,1.273,0,0,1,.5-.152,4.534,4.534,0,0,0,1.2-.366c.43-.2.6-.412.516-.645a.174.174,0,0,0-.029-.058c-.133-.186-.575-.192-1.325-.006-.662.157-1.074.18-1.231.064a.2.2,0,0,1-.07-.1c-.017-.139.151-.332.5-.564s.412-.441.2-.61h0c-.221-.174-.593-.087-1.121.256a3.22,3.22,0,0,1-.82.407c-.029.005-.058.017-.093.023l-.017.006a2.511,2.511,0,0,1-1.087.052c-.3-.052-.6-.116-.9-.2a6.028,6.028,0,0,1-1.8-.808,7.712,7.712,0,0,1-3.718-7.581,11.759,11.759,0,0,1,.412-1.79l.174-.4-.017-.005.035.011q1.578-2.676,4.689-.064a7.553,7.553,0,0,0,5.258,1.813c1.226-.087,1.569-.314,1.011-.679a3.925,3.925,0,0,0-.4-.215A8.484,8.484,0,0,1-991,144.548a2.109,2.109,0,0,1-.186-.721.457.457,0,0,1,.041-.238.2.2,0,0,1,.058-.064.127.127,0,0,1,.058-.04l-.064.011c0-.011.006-.023.006-.035a.824.824,0,0,1,.47-.442,3.019,3.019,0,0,1,1.5-.1Q-977.127,144.44-972.941,131.829Z" transform="translate(1039.975 -120.5)" fill="#ffd430"/>
          <path id="Path_58" data-name="Path 58" d="M-970.089,174.268l.017.005c-.005-.005-.005-.005,0-.011Z" transform="translate(1022.802 -133.726)" fill="#f0c122"/>
          <g id="Group_22" data-name="Group 22" transform="translate(0 1.883)">
            <g id="Group_21" data-name="Group 21">
              <g id="Group_10" data-name="Group 10" transform="translate(27.399)">
                <g id="Group_9" data-name="Group 9">
                  <path id="Path_59" data-name="Path 59" d="M-1003.662,123c.029.221.075.459.133.715a23.78,23.78,0,0,0,2.08,5.432q1.168,2.031,5.246,3.318c2.452.779,3.631,1.4,3.526,1.865.68-.866.018-1.836-2-2.9a48.55,48.55,0,0,1-5.264-3.178A11.415,11.415,0,0,1-1003.662,123Z" transform="translate(1003.662 -122.997)" fill="#e5b02b"/>
                </g>
              </g>
              <g id="Group_12" data-name="Group 12" transform="translate(18.915 13.357)">
                <g id="Group_11" data-name="Group 11">
                  <path id="Path_60" data-name="Path 60" d="M-1011.9,142.716q-3.007-.993-2.278-2-1.891,1.795,1.086,2.806a18.812,18.812,0,0,0,7.3,1.72,7.422,7.422,0,0,0,4.956-1.831c1.6-1.278,2.423-1.522,2.446-.726h.011a6.069,6.069,0,0,1,.221,1.284q.157-3.26-2.121-1.981a14.794,14.794,0,0,1-5.816,1.616A16.222,16.222,0,0,1-1011.9,142.716Z" transform="translate(1014.914 -140.712)" fill="#e5b02b"/>
                </g>
              </g>
              <g id="Group_14" data-name="Group 14" transform="translate(0 27.766)">
                <g id="Group_13" data-name="Group 13">
                  <path id="Path_61" data-name="Path 61" d="M-1039.775,159.822c-.273.244-.3.464-.081.656a7.159,7.159,0,0,0,2.754.912q9.342,1.674,9.546,14.536.209,12.916,10.226,15.461c1.093.262,1.76.418,2,.464a4.715,4.715,0,0,1,.755.238,1.223,1.223,0,0,1,.6.506.884.884,0,0,1,.075.749.848.848,0,0,1-.877.651,1.868,1.868,0,0,1-.3-.023,3.687,3.687,0,0,1-.743-.232c-.1-.035-.192-.07-.291-.1a2.1,2.1,0,0,0-.651-.087,1.747,1.747,0,0,1,.686.209q.435.2.889.418a1.13,1.13,0,0,1,.593.691.95.95,0,0,1-.076.82,4.78,4.78,0,0,1-.842.894,6.13,6.13,0,0,1,3.219-1.057,22.437,22.437,0,0,0,13.607-5.334c.814-.569,1.215-.453,1.2.349v2.515c-.023,1.11.377,1.685,1.2,1.737a1.712,1.712,0,0,0,.593-.11c-.785.011-1.168-.425-1.157-1.307l.21-2c.011-.232.035-.494.075-.772a8.178,8.178,0,0,0-.012-1.988,1.662,1.662,0,0,0-.552-1.1q-.828-.637-2.981.325a31.165,31.165,0,0,1-3.434,1.331,19.29,19.29,0,0,1-3.236.581,23.847,23.847,0,0,1-3.724.11,15.1,15.1,0,0,1-4.136-.918,16.583,16.583,0,0,1-7.658-5.183,18.22,18.22,0,0,1-3.643-9.894q-1.2-12.646-11.312-13.078C-1039.455,160.682-1040.291,160.362-1039.775,159.822Z" transform="translate(1040 -159.822)" fill="#e5b02b"/>
                </g>
              </g>
              <g id="Group_16" data-name="Group 16" transform="translate(48.89 9.447)">
                <g id="Group_15" data-name="Group 15">
                  <path id="Path_62" data-name="Path 62" d="M-956.55,135.573c-.163-.017-.314-.029-.465-.047q-4.191,12.611-16.169,11.085a3.019,3.019,0,0,0-1.5.1.824.824,0,0,0-.47.442l.058.023c.25-.192.842-.117,1.772.238a14.467,14.467,0,0,0,2.673.755,10.156,10.156,0,0,0,2.91.052,9.053,9.053,0,0,0,3.126-.86,12.119,12.119,0,0,0,4.566-3.794l.233-.29a.355.355,0,0,0,.041-.052,16.06,16.06,0,0,0,2.527-5.037C-957.015,137.275-956.782,136.4-956.55,135.573Z" transform="translate(975.159 -135.526)" fill="#e5b02b"/>
                </g>
              </g>
              <g id="Group_18" data-name="Group 18" transform="translate(26.816 31.96)">
                <g id="Group_17" data-name="Group 17">
                  <path id="Path_63" data-name="Path 63" d="M-998.153,167.942c.343-.854.663-1.709.964-2.557a18.186,18.186,0,0,0-5.345,1.8,9.423,9.423,0,0,0-1.888,1.22c.163-.058.279-.058.337.023.069.116,0,.337-.209.674s-.186.529.063.593.541-.152.86-.651a3.431,3.431,0,0,1,.54-.663.711.711,0,0,0,.07-.052l.011-.012a2.489,2.489,0,0,1,.906-.464c.285-.07.564-.128.848-.174A5.56,5.56,0,0,1-998.153,167.942Z" transform="translate(1004.435 -165.385)" fill="#e5b02b"/>
                </g>
              </g>
              <g id="Group_20" data-name="Group 20" transform="translate(38.752 36.446)">
                <g id="Group_19" data-name="Group 19">
                  <path id="Path_64" data-name="Path 64" d="M-974.627,173.553l-.017-.005c-.041.162-.424.325-1.156.476a15.9,15.9,0,0,1-4.817-.011,21.6,21.6,0,0,1-6.182-1.767l-1.807-.912.552.569c.081.087.157.168.238.25a35.823,35.823,0,0,1,2.568,3.1l2.788,3.835a17,17,0,0,0-.964-2.179c-.366-.883-.639-1.516-.813-1.9s-.308-.726-.418-1.005c.162.047.406.133.755.262a11.035,11.035,0,0,0,1.389.372,11.6,11.6,0,0,0,1.836.227c.645.023,1.278.023,1.905-.006.61-.052,1.1-.1,1.476-.169a7.585,7.585,0,0,0,.813-.162c.163-.041.436-.128.82-.25a2.508,2.508,0,0,0,.854-.447A.481.481,0,0,0-974.627,173.553Z" transform="translate(988.605 -171.334)" fill="#e5b02b"/>
                </g>
              </g>
            </g>
          </g>
          <g id="Group_23" data-name="Group 23" transform="translate(28.314 14.335)">
            <path id="Path_65" data-name="Path 65" d="M-995.955,140.545c.36-.146.308-.274-.163-.378q-6.475-1.6-6.327.7T-995.955,140.545Z" transform="translate(1002.448 -139.513)" fill="#fff"/>
          </g>
          <g id="Group_24" data-name="Group 24" transform="translate(41.991 15.228)">
            <path id="Path_66" data-name="Path 66" d="M-983.26,140.737a1.368,1.368,0,0,0-.918.988,3.164,3.164,0,0,0,0,1.8,3.057,3.057,0,0,0,.9,1.552,1.334,1.334,0,0,0,1.284.4,1.344,1.344,0,0,0,.918-.988,3.09,3.09,0,0,0,.006-1.8,3.121,3.121,0,0,0-.9-1.557A1.361,1.361,0,0,0-983.26,140.737Z" transform="translate(984.309 -140.696)" fill="#fff"/>
          </g>
          <g id="Group_25" data-name="Group 25" transform="translate(42.121 16.187)">
            <path id="Path_67" data-name="Path 67" d="M-983.369,142a.991.991,0,0,0-.668.727,2.314,2.314,0,0,0-.006,1.319,2.312,2.312,0,0,0,.663,1.145,1,1,0,0,0,.947.29.978.978,0,0,0,.674-.726,2.317,2.317,0,0,0,0-1.319,2.249,2.249,0,0,0-.663-1.139A1,1,0,0,0-983.369,142Z" transform="translate(984.136 -141.969)" fill="#623f98"/>
          </g>
        </g>
        <g id="Group_27" data-name="Group 27" transform="translate(36.878 42.206)">
          <path id="Path_68" data-name="Path 68" d="M-991.029,181.477c-.157-.029-.012.151.43.546a39.616,39.616,0,0,0,3.5,2.876c.256.279.267.843.052,1.691a32.927,32.927,0,0,1-1.325,4.108c-.133.226.093.157.685-.21a9.572,9.572,0,0,0,3.771-3.3c.139-.139.337.035.6.535s.494.924.715,1.284a15,15,0,0,0-.4-8.471l-.064-.179a14.677,14.677,0,0,0-.8-1.284c-.4-.593-.958-1.348-1.7-2.272l-.005-.006c-.244-.378-.332-.418-.256-.116a12.8,12.8,0,0,1,.366,4.881c-.029.3-.169.436-.425.412C-987.659,181.883-989.367,181.72-991.029,181.477Z" transform="translate(991.09 -176.477)" fill="#fff"/>
        </g>
      </g>
    </g>
  </g>
</svg>
